Coordinates
version=1
nRows=29
nColumns=34
inDegrees=no

Units are S.I. units (second, meters, Newtons, ...)
If the header above contains a line with 'inDegrees', this indicates whether rotational values are in degrees (yes) or radians (no).

endheader
time	pelvis_tilt	pelvis_list	pelvis_rotation	pelvis_tx	pelvis_ty	pelvis_tz	hip_flexion_r	hip_adduction_r	hip_rotation_r	knee_angle_r	ankle_angle_r	subtalar_angle_r	mtp_angle_r	hip_flexion_l	hip_adduction_l	hip_rotation_l	knee_angle_l	ankle_angle_l	subtalar_angle_l	mtp_angle_l	lumbar_extension	lumbar_bending	lumbar_rotation	arm_flex_r	arm_add_r	arm_rot_r	elbow_flex_r	pro_sup_r	arm_flex_l	arm_add_l	arm_rot_l	elbow_flex_l	pro_sup_l
0	0.0460854	0.00856632	-0.0017511	-0.205212	0.921678	-0.257303	0.44763	-0.0408482	-0.12312	0.0744379	0.260659	0.153446	0	-0.404948	0.044853	0.0191382	0.142695	0.356548	0.108315	0	-0.206568	0.0108905	-0.146397	-0.0918693	-0.132502	-0.124334	0.585121	2.09	0.0375098	-0.187756	0.0863832	0.730567	2.09
0.01	0.0423267	0.00897595	-0.00105625	-0.191174	0.919676	-0.257388	0.457569	-0.041394	-0.128069	0.10118	0.255393	0.162332	0	-0.401306	0.0444068	0.0102726	0.169831	0.350124	0.122474	0	-0.197312	0.0208415	-0.134724	-0.0994927	-0.129757	-0.149833	0.583068	2.09	0.044702	-0.182272	0.0967678	0.713624	2.09
0.02	0.0397392	0.00496727	-3.78468e-05	-0.176023	0.917822	-0.257346	0.462468	-0.037617	-0.136731	0.124126	0.24801	0.173696	0	-0.4003	0.0376644	-0.00975195	0.196438	0.345398	0.150958	0	-0.187714	0.0358949	-0.128358	-0.105911	-0.128582	-0.169304	0.579538	2.09	0.0445637	-0.17617	0.0993943	0.700646	2.09
0.03	0.03697	-0.00100131	0.000939642	-0.160495	0.916143	-0.25715	0.465995	-0.0313393	-0.140837	0.145469	0.232133	0.177391	0	-0.398718	0.0284277	-0.0288375	0.223697	0.336176	0.17554	0	-0.177611	0.0529823	-0.124858	-0.110675	-0.128336	-0.183927	0.574172	2.09	0.0409298	-0.170041	0.0975869	0.689601	2.09
0.04	0.0333219	-0.00849337	0.00164081	-0.144811	0.91465	-0.256751	0.469968	-0.0230604	-0.142223	0.166813	0.20838	0.177419	0	-0.393523	0.0162171	-0.0531539	0.255345	0.325229	0.205738	0	-0.166503	0.0714306	-0.122423	-0.114296	-0.128589	-0.195941	0.567341	2.09	0.0357104	-0.164072	0.0942608	0.67881	2.09
0.05	0.0291911	-0.0169429	0.00175809	-0.129041	0.91343	-0.25617	0.474554	-0.0133644	-0.141073	0.189254	0.179397	0.17518	0	-0.385709	0.00306997	-0.0727436	0.289683	0.306781	0.225704	0	-0.154942	0.0905825	-0.120271	-0.116841	-0.129325	-0.205808	0.559125	2.09	0.0296783	-0.158264	0.0905712	0.667656	2.09
0.06	0.0245619	-0.0264731	0.00115895	-0.113252	0.912495	-0.255395	0.480481	-0.00239277	-0.139548	0.214301	0.14983	0.173635	0	-0.373927	-0.0120244	-0.092623	0.329059	0.282899	0.242886	0	-0.14306	0.110526	-0.117995	-0.118404	-0.130417	-0.214462	0.549952	2.09	0.0232115	-0.152679	0.0873549	0.655958	2.09
0.07	0.0196768	-0.0368708	-0.000311315	-0.0975104	0.911864	-0.254444	0.487883	0.00939206	-0.139045	0.242951	0.124511	0.174331	0	-0.358083	-0.028856	-0.11188	0.373863	0.252637	0.255313	0	-0.131328	0.131016	-0.11546	-0.118935	-0.1318	-0.222384	0.5403	2.09	0.0164615	-0.14738	0.0849492	0.643963	2.09
0.08	0.0146955	-0.0478949	-0.00276586	-0.0818873	0.911535	-0.253337	0.496379	0.0217205	-0.139616	0.274994	0.10673	0.176529	0	-0.338053	-0.0472844	-0.130125	0.424377	0.215418	0.261514	0	-0.120147	0.151758	-0.112626	-0.118375	-0.13338	-0.229952	0.530726	2.09	0.00949131	-0.142448	0.083475	0.632105	2.09
0.09	0.00967421	-0.0593024	-0.00630448	-0.0664581	0.911488	-0.252077	0.505083	0.0346887	-0.139853	0.308855	0.0974798	0.177598	0	-0.313835	-0.0672113	-0.147216	0.480455	0.170936	0.260109	0	-0.109801	0.172406	-0.109441	-0.116691	-0.135037	-0.237318	0.521752	2.09	0.00232706	-0.137992	0.0828931	0.62091	2.09
0.1	0.00458276	-0.0694508	-0.010615	-0.0511682	0.911571	-0.250614	0.514743	0.0464435	-0.140242	0.346038	0.0987103	0.178316	0	-0.285872	-0.0871135	-0.162144	0.540958	0.119236	0.249611	0	-0.0999305	0.190803	-0.106392	-0.114402	-0.136105	-0.244631	0.51394	2.09	-0.00557705	-0.134728	0.0830515	0.611541	2.09
0.11	0.000224548	-0.0833565	-0.0162176	-0.0364036	0.912236	-0.249111	0.518356	0.0640749	-0.135692	0.373688	0.100357	0.169586	0	-0.255238	-0.112013	-0.176827	0.605053	0.0612773	0.229102	0	-0.0929836	0.21311	-0.102093	-0.110057	-0.138253	-0.251007	0.50716	2.09	-0.0122502	-0.130733	0.0837835	0.602187	2.09
0.12	-0.00233601	-0.0974792	-0.0216486	-0.0218076	0.91323	-0.247441	0.517249	0.0825725	-0.130701	0.397294	0.107385	0.159282	0	-0.22487	-0.138461	-0.188994	0.669299	-0.000334282	0.199856	0	-0.0887566	0.234581	-0.0982005	-0.105042	-0.139958	-0.256384	0.501916	2.09	-0.0191189	-0.127679	0.0844973	0.595024	2.09
0.13	-0.00290812	-0.115167	-0.0268018	-0.00759832	0.914838	-0.245751	0.506673	0.106493	-0.122026	0.407314	0.112296	0.142494	0	-0.195522	-0.169424	-0.198821	0.7323	-0.0613601	0.162398	0	-0.0882866	0.259297	-0.0939812	-0.0987515	-0.142327	-0.260197	0.498099	2.09	-0.0248166	-0.124214	0.0851133	0.588495	2.09
0.14	-0.006731	-0.123848	-0.0342893	0.00611699	0.915935	-0.243825	0.504431	0.120448	-0.116609	0.426395	0.126548	0.136753	0	-0.161385	-0.189729	-0.204103	0.793264	-0.116447	0.115105	0	-0.0850596	0.272546	-0.0883603	-0.0929458	-0.142586	-0.262959	0.496104	2.09	-0.0312938	-0.123316	0.0851627	0.585589	2.09
0.15	-0.0091062	-0.132217	-0.041283	0.0193994	0.917442	-0.241985	0.496584	0.13362	-0.11326	0.437965	0.14172	0.13585	0	-0.128308	-0.208896	-0.205827	0.850477	-0.160736	0.0625804	0	-0.0845987	0.284637	-0.082443	-0.0864336	-0.142944	-0.263325	0.495328	2.09	-0.0365156	-0.122522	0.0845906	0.583533	2.09
0.16	-0.00910711	-0.141137	-0.046731	0.0323477	0.919465	-0.240276	0.481236	0.147184	-0.109748	0.440225	0.155593	0.135495	0	-0.0973304	-0.227836	-0.203899	0.903357	-0.190644	0.00791418	0	-0.0875239	0.296449	-0.0768412	-0.0793738	-0.143553	-0.260731	0.49535	2.09	-0.0402991	-0.121721	0.0835215	0.581874	2.09
0.17	-0.0090957	-0.145328	-0.0515809	0.0449203	0.921509	-0.238632	0.466836	0.154623	-0.108758	0.443992	0.17259	0.141159	0	-0.0652228	-0.240267	-0.198328	0.952169	-0.205851	-0.0489542	0	-0.0906832	0.301956	-0.0713211	-0.0724646	-0.143418	-0.255171	0.495768	2.09	-0.0434213	-0.122145	0.0821965	0.58153	2.09
0.18	-0.00794503	-0.148252	-0.0547622	0.0571675	0.92386	-0.237157	0.448913	0.160038	-0.108313	0.442969	0.188853	0.148411	0	-0.0331851	-0.250154	-0.189612	0.996445	-0.208613	-0.105545	0	-0.095328	0.305269	-0.0664003	-0.0653741	-0.143511	-0.246152	0.495865	2.09	-0.0452712	-0.122912	0.081054	0.581294	2.09
0.19	-0.00629446	-0.149144	-0.0563915	0.0691319	0.926392	-0.235822	0.429611	0.162731	-0.108066	0.439693	0.204312	0.156121	0	-0.000501212	-0.256642	-0.17835	1.03584	-0.202887	-0.160163	0	-0.100461	0.305571	-0.0622187	-0.0583397	-0.143752	-0.233949	0.495242	2.09	-0.0461617	-0.124255	0.0803587	0.58124	2.09
0.2	-0.00464766	-0.148139	-0.0567136	0.0808399	0.929045	-0.234595	0.409755	0.163128	-0.107427	0.434565	0.218398	0.163153	0	0.0331593	-0.259908	-0.165367	1.07	-0.192934	-0.210805	0	-0.105448	0.303106	-0.0587559	-0.0514537	-0.144242	-0.219121	0.493742	2.09	-0.0462857	-0.126101	0.0801419	0.581279	2.09
0.21	-0.00322611	-0.145585	-0.0561305	0.0923324	0.931785	-0.233426	0.38957	0.162039	-0.10535	0.427541	0.230445	0.167852	0	0.067547	-0.260513	-0.15176	1.09864	-0.180966	-0.254091	0	-0.110053	0.298318	-0.0557244	-0.0448997	-0.144913	-0.203244	0.491769	2.09	-0.0457821	-0.128309	0.0802891	0.581327	2.09
0.22	-0.00268398	-0.141468	-0.0547163	0.10363	0.934522	-0.232334	0.370117	0.158901	-0.104163	0.419408	0.24176	0.173598	0	0.103291	-0.257886	-0.137385	1.12167	-0.171709	-0.292863	0	-0.113372	0.291334	-0.0537377	-0.038515	-0.145942	-0.18598	0.489217	2.09	-0.0451992	-0.130485	0.0791456	0.581689	2.09
0.23	-0.00249826	-0.136578	-0.0532766	0.114795	0.937291	-0.231203	0.350141	0.15584	-0.0996192	0.408911	0.250211	0.174254	0	0.138884	-0.253762	-0.124123	1.13908	-0.159573	-0.318495	0	-0.116169	0.282932	-0.0517069	-0.0325434	-0.147368	-0.167973	0.486707	2.09	-0.0442986	-0.132778	0.0783161	0.581858	2.09
0.24	-0.00310252	-0.130797	-0.051799	0.125833	0.940005	-0.230082	0.330522	0.151884	-0.094788	0.39701	0.257722	0.174502	0	0.17486	-0.247349	-0.11141	1.15095	-0.147313	-0.335565	0	-0.117854	0.273134	-0.0501398	-0.0269388	-0.149061	-0.150309	0.48462	2.09	-0.0435844	-0.134556	0.0749845	0.582373	2.09
0.25	-0.00427678	-0.124417	-0.0505883	0.136774	0.942647	-0.228952	0.31095	0.147388	-0.089485	0.383701	0.264448	0.174358	0	0.210607	-0.239182	-0.0997779	1.15735	-0.132318	-0.342207	0	-0.118732	0.262281	-0.0486519	-0.0218203	-0.151102	-0.132953	0.483169	2.09	-0.0430224	-0.135748	0.0693018	0.583126	2.09
0.26	-0.00587604	-0.117653	-0.049791	0.147636	0.945187	-0.22781	0.291323	0.14251	-0.0838235	0.369177	0.270638	0.174128	0	0.245708	-0.229663	-0.0894949	1.15831	-0.113329	-0.33835	0	-0.119028	0.250649	-0.0470196	-0.0172825	-0.153524	-0.11595	0.482439	2.09	-0.0426147	-0.136257	0.0610801	0.584141	2.09
0.27	-0.00774995	-0.110689	-0.0494745	0.158433	0.947598	-0.226654	0.271597	0.137357	-0.0779879	0.353729	0.276512	0.17414	0	0.279735	-0.219255	-0.0808334	1.15381	-0.0899547	-0.324518	0	-0.118985	0.238466	-0.0450614	-0.0133952	-0.156301	-0.0994618	0.482491	2.09	-0.0423274	-0.13608	0.0503534	0.585471	2.09
0.28	-0.00966318	-0.103737	-0.0496912	0.169179	0.949861	-0.225467	0.251609	0.132163	-0.0718152	0.337568	0.282053	0.174133	0	0.312089	-0.208709	-0.0742673	1.14382	-0.0615343	-0.300178	0	-0.118949	0.225934	-0.0427869	-0.00996075	-0.159409	-0.0829774	0.4831	2.09	-0.0422734	-0.135217	0.0367227	0.587398	2.09
